<?xml version="1.0" encoding="UTF-8"?>
<svg id="Layer_1" xmlns="http://www.w3.org/2000/svg" width="13.25" height="14" viewBox="0 0 13.25 14">
  <defs>
    <style>
      .cls-1 {
        fill: #83ca99;
      }
    </style>
  </defs>
  <path class="cls-1" d="M13.25,14H0v-2.6249c0-2.5507,2.0746-4.6253,4.6248-4.6253h4.0003c2.5497,0,4.6248,2.0746,4.6248,4.6253v2.6249ZM1.25,12.75h10.7501v-1.375c0-1.8613-1.5136-3.3754-3.3749-3.3754h-4.0003c-1.8608,0-3.3749,1.5141-3.3749,3.3754v1.375Z"/>
  <path class="cls-1" d="M6.6248,6.2498c-1.7231,0-3.1249-1.4018-3.1249-3.1249S4.9017,0,6.6248,0s3.1254,1.4018,3.1254,3.1249-1.4023,3.1249-3.1254,3.1249ZM6.6248,1.25c-1.0337,0-1.8749.8413-1.8749,1.8749s.8413,1.8749,1.8749,1.8749,1.8754-.8413,1.8754-1.8749-.8413-1.8749-1.8754-1.8749Z"/>
  <rect class="cls-1" x="5.9998" y="7.3747" width="1.25" height="6.0003"/>
</svg>