<?xml version="1.0" encoding="UTF-8"?>
<svg id="Layer_1" xmlns="http://www.w3.org/2000/svg" width="150.9795" height="87.3882" viewBox="0 0 150.9795 87.3882">
  <defs>
    <style>
      .cls-1 {
        fill: #d1d3d4;
      }

      .cls-2, .cls-3 {
        fill: #010101;
      }

      .cls-3 {
        stroke: #d1d3d4;
        stroke-miterlimit: 10;
      }

      .cls-4 {
        fill: #2371b9;
      }
    </style>
  </defs>
  <g>
    <path class="cls-2" d="M20.1607,74.7397c-5.1797,0-9.0269-5.5215-11.8354-9.5518C1.3462,55.0923-2.6679,38.4585,3.6368,27.5156c3.3179-5.7808,9.3203-9.4243,15.6646-9.5083l.2529-.0029c2.7051,0,5.2773,1.0215,7.5469,1.9229,1.6606.6597,3.103,1.2324,4.2461,1.2725l.1245-.001c1.0098,0,2.4253-.5562,4.0649-1.2002,2.4834-.9756,5.5742-2.1895,9.021-2.1895.3672,0,.7393.0137,1.1138.043,5.98.4053,10.7739,3.0039,13.8579,7.5146l.3096.4526-.4795.2666c-.3184.1772-7.7979,4.439-7.7197,13.563.1138,10.8721,9.4629,14.417,9.5576,14.4512l.4385.1611-.125.4492c-.1587.5469-1.6489,5.4873-5.1729,10.6328-2.9326,4.3057-6.2573,9.1865-11.6963,9.2734l-.29.0039c-2.375,0-4.0386-.7197-5.6475-1.415-1.7075-.7383-3.4731-1.501-6.2339-1.501-2.9429,0-4.8057.7959-6.6069,1.5654-1.5767.6729-3.207,1.3691-5.4585,1.4658l-.2441.0039Z"/>
    <path class="cls-1" d="M44.5571,18.3091c.3546,0,.7133.0133,1.0751.0415,2.356.1597,9.0951.8785,13.4845,7.2982-.3594.1997-8.0569,4.6658-7.9771,14.0037.1167,11.1685,9.7709,14.8791,9.8907,14.919-.0799.2764-1.5543,5.3047-5.1051,10.4897-3.0717,4.5092-6.2631,8.9754-11.2914,9.0552-.096.0023-.1902.0035-.2837.0035-4.7245,0-6.365-2.9154-11.88-2.9154-5.6672,0-7.418,2.8321-12.0869,3.0317-.0742.0024-.148.0036-.2217.0036-4.7555,0-8.3619-4.9403-11.426-9.3383C2.3925,55.7264-2.433,39.0535,4.0696,27.7652c3.2283-5.6242,8.9723-9.175,15.2385-9.258.0823-.002.1643-.003.2464-.003,4.6549,0,9.0559,3.1975,11.9174,3.1975v-.0031c2.7028,0,7.4186-3.3896,13.0852-3.3896M44.5571,17.3091c-3.5411,0-6.6806,1.2332-9.2031,2.224-1.5922.6254-2.9673,1.1656-3.8821,1.1656h-.1352c-1.0571-.047-2.5133-.6254-4.0513-1.2362-2.311-.9179-4.9304-1.9582-7.7309-1.9583-.0903,0-.1805.0011-.271.0033-6.5088.0861-12.6751,3.8259-16.0812,9.7598-6.4061,11.1207-2.3545,27.9833,4.7105,38.2027,2.8737,4.1247,6.8065,9.7697,12.2486,9.7697.0844,0,.1688-.0013.2538-.0041,2.353-.1006,4.026-.8152,5.644-1.5062,1.836-.7842,3.5702-1.525,6.4108-1.525,2.6573,0,4.2981.7092,6.0353,1.4601,1.6553.7155,3.3669,1.4553,5.8447,1.4553.1015,0,.2037-.0012.3079-.0037,5.6893-.0903,9.2403-5.3033,12.0937-9.4919,3.5747-5.2197,5.0795-10.2219,5.2393-10.7751l.2665-.9226-.911-.3037c-.0673-.0257-9.0977-3.5217-9.207-13.9808-.0755-8.8285,7.3874-13.0772,7.4628-13.119l.9591-.5328-.6193-.9057c-3.1735-4.6415-8.0984-7.315-14.2424-7.7315-.3688-.0288-.7567-.0438-1.1427-.0438h0Z"/>
  </g>
  <path class="cls-3" d="M41.8479,12.2841c2.5894-3.1085,4.3003-7.4549,3.8242-11.7644-3.7075.1597-8.1767,2.4727-10.8491,5.5843-2.3959,2.7522-4.4662,7.1815-3.9102,11.4081,4.1099.3195,8.3395-2.1133,10.932-5.2249"/>
  <path class="cls-4" d="M90.1487,41.8281v13.9262h-4.4335v-17.5045l9.1524.0087c3.8874,0,5.2117,2.7414,5.2117,5.2317v12.2642h-4.4251v-12.2413c0-1.043-.54-1.6848-1.8423-1.6848h-3.6631ZM120.293,41.6188c-1.5153,0-2.6879.779-3.1775,1.8365-.2906.6349-.3901,1.1214-.4243,1.8987h6.8201c-.0877-1.8987-.9486-3.7352-3.2183-3.7352M116.6913,48.3713c0,2.2674,1.4093,3.9363,3.9262,3.9363,1.958,0,2.9313-.5426,4.0634-1.6689l2.7379,2.6144c-1.7531,1.7306-3.5928,2.7819-6.834,2.7819-4.2437,0-8.3047-2.314-8.3047-9.058,0-5.7618,3.5456-9.0242,8.2052-9.0242,4.7229,0,7.4513,3.8191,7.4513,8.8216v1.5969h-11.2452M108.5379,55.7323c-3.6116,0-5.144-2.514-5.144-4.997v-17.2551h4.4263v4.7692h3.3367v3.5786h-3.3367v8.6297c0,1.0169.4804,1.5815,1.5361,1.5815h1.8006v3.6929h-2.619M81.771,35.8307h-4.4636v-4.2402h4.4636v4.2402ZM81.7823,55.9383c-3.3425-.3212-4.4798-2.3487-4.4798-4.6882l.0052-13.0004h4.4746v17.6886ZM134.9812,55.5641c-3.3355-.3215-4.4674-2.3458-4.4674-4.6824v-19.8943h4.4674v24.5767ZM150.5983,33.8625c-4.0486-19.7384-42.3631-20.988-67.0591-5.9537v1.66c24.6708-12.6789,59.6605-12.6039,62.8484,5.5757,1.0664,6.0113-2.3209,12.2787-8.3707,15.881v4.7131c7.2817-2.6639,14.7495-11.3023,12.5814-21.8764M105.7065,68.3961c-17.0444,1.5757-34.8053-.8983-37.2906-14.217-1.2166-6.5655,1.7746-13.5254,5.7424-17.8486v-2.3117c-7.1434,6.2636-11.0198,14.1933-8.788,23.5633,2.8485,12.015,18.092,18.8242,41.3589,16.5628,9.2056-.8983,21.2542-3.8585,29.6307-8.4561v-6.5313c-7.6006,4.5261-20.1782,8.2688-30.6534,9.2386"/>
</svg>