<?xml version="1.0" encoding="UTF-8"?>
<svg id="Layer_1" xmlns="http://www.w3.org/2000/svg" width="150" height="86.8685" viewBox="0 0 150 86.8685">
  <defs>
    <style>
      .cls-1 {
        fill: #010101;
      }

      .cls-2 {
        fill: #2371b9;
      }
    </style>
  </defs>
  <path class="cls-1" d="M30.4923,21.1821c-2.9119,0-7.418-3.3112-12.1637-3.1945-6.2662.0829-12.0102,3.6338-15.2385,9.258-6.5027,11.2883-1.6771,27.9612,4.6658,37.1362,3.1116,4.4662,6.7822,9.4914,11.6477,9.3347,4.6689-.1997,6.4197-3.0317,12.0869-3.0317,5.6242,0,7.2184,3.0317,12.1637,2.9119,5.0283-.0799,8.2197-4.546,11.2914-9.0552,3.5508-5.1849,5.0252-10.2132,5.1051-10.4897-.1198-.0399-9.774-3.7505-9.8907-14.919-.0799-9.3378,7.6177-13.804,7.9771-14.0037-4.3894-6.4197-11.1286-7.1385-13.4845-7.2982-6.1433-.4792-11.2883,3.3481-14.1603,3.3481v.0031Z"/>
  <path class="cls-1" d="M40.8683,11.7644c2.5894-3.1085,4.3003-7.4549,3.8242-11.7644-3.7075.1597-8.1767,2.4727-10.8491,5.5843-2.3959,2.7522-4.4662,7.1815-3.9102,11.4081,4.1099.3195,8.3395-2.1133,10.932-5.2249"/>
  <path class="cls-2" d="M89.1691,41.3084v13.9262h-4.4335v-17.5045l9.1524.0087c3.8874,0,5.2117,2.7414,5.2117,5.2317v12.2642h-4.4251v-12.2413c0-1.043-.54-1.6848-1.8423-1.6848h-3.6631ZM119.3135,41.0992c-1.5153,0-2.6879.779-3.1775,1.8365-.2906.6349-.3901,1.1214-.4243,1.8987h6.8201c-.0877-1.8987-.9486-3.7352-3.2183-3.7352M115.7117,47.8516c0,2.2674,1.4093,3.9363,3.9262,3.9363,1.958,0,2.9313-.5426,4.0634-1.6689l2.7379,2.6144c-1.7531,1.7306-3.5928,2.7819-6.834,2.7819-4.2437,0-8.3047-2.314-8.3047-9.058,0-5.7618,3.5456-9.0242,8.2052-9.0242,4.7229,0,7.4513,3.8191,7.4513,8.8216v1.5969h-11.2452M107.5584,55.2126c-3.6116,0-5.144-2.514-5.144-4.997v-17.2551h4.4263v4.7692h3.3367v3.5786h-3.3367v8.6297c0,1.0169.4804,1.5815,1.5361,1.5815h1.8006v3.6929h-2.619M80.7915,35.311h-4.4636v-4.2402h4.4636v4.2402ZM80.8028,55.4187c-3.3425-.3212-4.4798-2.3487-4.4798-4.6882l.0052-13.0004h4.4746v17.6886ZM134.0017,55.0445c-3.3355-.3215-4.4674-2.3458-4.4674-4.6824v-19.8943h4.4674v24.5767ZM149.6188,33.3429c-4.0486-19.7384-42.3631-20.988-67.0591-5.9537v1.66c24.6708-12.6789,59.6605-12.6039,62.8484,5.5757,1.0664,6.0113-2.3209,12.2787-8.3707,15.881v4.7131c7.2817-2.6639,14.7495-11.3023,12.5814-21.8764M104.7269,67.8765c-17.0444,1.5757-34.8053-.8983-37.2906-14.217-1.2166-6.5655,1.7746-13.5254,5.7424-17.8486v-2.3117c-7.1434,6.2636-11.0198,14.1933-8.788,23.5633,2.8485,12.015,18.092,18.8242,41.3589,16.5628,9.2056-.8983,21.2542-3.8585,29.6307-8.4561v-6.5313c-7.6006,4.5261-20.1782,8.2688-30.6534,9.2386"/>
</svg>